<svg width="1024" height="1024" viewBox="0 0 1024 1024" xmlns="http://www.w3.org/2000/svg">
  <!-- 渐变定义 -->
  <defs>
    <linearGradient id="bgGradient" x1="0%" y1="0%" x2="100%" y2="0%">
      <stop offset="0%" style="stop-color:#2196F3;stop-opacity:1" />
      <stop offset="100%" style="stop-color:#1976D2;stop-opacity:1" />
    </linearGradient>
    <!-- 添加动态效果渐变 -->
    <linearGradient id="motionGradient" x1="0%" y1="0%" x2="100%" y2="0%">
      <stop offset="0%" style="stop-color:white;stop-opacity:0.8" />
      <stop offset="100%" style="stop-color:white;stop-opacity:0.2" />
    </linearGradient>
  </defs>
  
  <!-- 背景 -->
  <rect width="1024" height="1024" rx="200" ry="200" fill="url(#bgGradient)" />
  
  <!-- 滑动效果装饰线条组 -->
  <g transform="translate(512, 512) rotate(-15) translate(-512, -512)">
    <path d="M 382 212 Q 332 512 382 812" stroke="white" stroke-width="3" fill="none" opacity="0.3" />
    <path d="M 402 212 Q 352 512 402 812" stroke="white" stroke-width="6" fill="none" opacity="0.4" />
    <path d="M 422 212 Q 372 512 422 812" stroke="white" stroke-width="10" fill="none" opacity="0.5" />
  </g>
  
  <!-- 主要图形元素：倾斜的条形 -->
  <g transform="translate(512, 512) rotate(-15) translate(-512, -512)">
    <rect x="462" y="212" width="100" height="600" rx="50" ry="50" fill="white" opacity="0.9" />
    <!-- 动态效果叠加 -->
    <rect x="462" y="212" width="100" height="600" rx="50" ry="50" fill="url(#motionGradient)" opacity="0.3" />
  </g>
  
  <!-- 速度线效果 -->
  <g transform="translate(512, 512) rotate(-15) translate(-512, -512)">
    <path d="M 592 212 Q 642 512 592 812" stroke="white" stroke-width="10" fill="none" opacity="0.5" />
    <path d="M 612 212 Q 662 512 612 812" stroke="white" stroke-width="6" fill="none" opacity="0.4" />
    <path d="M 632 212 Q 682 512 632 812" stroke="white" stroke-width="3" fill="none" opacity="0.3" />
  </g>
</svg>